<?xml version="1.0" encoding="UTF-8" standalone="no"?>
<svg
   version="1.1"
   id="Calque_1"
   x="0px"
   y="0px"
   viewBox="0 0 520.00001 142.99999"
   xml:space="preserve"
   sodipodi:docname="logo-acceslibre.svg"
   inkscape:version="1.1 (c4e8f9e, 2021-05-24)"
   width="520"
   height="143"
   xmlns:inkscape="http://www.inkscape.org/namespaces/inkscape"
   xmlns:sodipodi="http://sodipodi.sourceforge.net/DTD/sodipodi-0.dtd"
   xmlns="http://www.w3.org/2000/svg"
   xmlns:svg="http://www.w3.org/2000/svg"
   xmlns:rdf="http://www.w3.org/1999/02/22-rdf-syntax-ns#"
   xmlns:cc="http://creativecommons.org/ns#"
   xmlns:dc="http://purl.org/dc/elements/1.1/"><metadata
   id="metadata109"><rdf:RDF><cc:Work
       rdf:about=""><dc:format>image/svg+xml</dc:format><dc:type
         rdf:resource="http://purl.org/dc/dcmitype/StillImage" /><dc:title /></cc:Work></rdf:RDF></metadata><defs
   id="defs107" /><sodipodi:namedview
   pagecolor="#ffffff"
   bordercolor="#666666"
   borderopacity="1"
   objecttolerance="10"
   gridtolerance="10"
   guidetolerance="10"
   inkscape:pageopacity="0"
   inkscape:pageshadow="2"
   inkscape:window-width="1920"
   inkscape:window-height="1035"
   id="namedview105"
   showgrid="false"
   inkscape:zoom="2.1824602"
   inkscape:cx="224.51727"
   inkscape:cy="168.38795"
   inkscape:window-x="0"
   inkscape:window-y="23"
   inkscape:window-maximized="1"
   inkscape:current-layer="Calque_1"
   inkscape:document-rotation="0"
   showguides="true"
   inkscape:guide-bbox="true"
   inkscape:pagecheckerboard="1"><sodipodi:guide
     position="162.57773,59.100938"
     orientation="0,-1"
     id="guide61" /></sodipodi:namedview>
<style
   type="text/css"
   id="style10">
	.st0{fill:#FFFFFF;stroke:#1A578B;stroke-width:4;stroke-miterlimit:10;}
	.st1{fill:#FFFFFF;stroke:#1A578B;stroke-width:6;stroke-miterlimit:10;}
	.st2{fill:#1A578B;}
	.st3{fill:#FFFFFF;}
	.st4{fill:#010202;}
	.st5{fill:#293173;}
	.st6{fill:#E10814;}
	.st7{fill:#9D9D9C;}
</style>
<rect
   style="opacity:1;fill:#ffffff;fill-opacity:1;stroke:none;stroke-width:25.2596;stroke-miterlimit:10;stroke-opacity:1;paint-order:markers fill stroke"
   id="rect4321"
   width="519.13892"
   height="142.49973"
   x="0.11821795"
   y="0.080454111"
   ry="43.962673"
   rx="0" /><path
   class="st0"
   d="M 475.8,238.9"
   id="path12" />
<path
   class="st0"
   d="M 540.8,238.9"
   id="path14" />
<polyline
   class="st1"
   points="470.5,151 470.5,51.2 523.5,51.2 "
   id="polyline16"
   transform="translate(-22.630372,-34.000939)" />
<polygon
   class="st2"
   points="540.8,148.9 498.7,160.4 498.7,41.8 540.8,51.9 "
   id="polygon18"
   transform="translate(-22.630372,-34.000939)" />
<circle
   class="st3"
   cx="483.16962"
   cy="71.59906"
   r="3.3"
   id="circle20" />
<rect
   x="438.86963"
   y="45.499062"
   class="st3"
   width="14.1"
   height="43.200001"
   id="rect22" />
<g
   id="g36"
   transform="translate(-22.630372,-34.000939)">
	<g
   id="g34">
		<path
   class="st2"
   d="m 373.4,107.5 c 0,0.8 0.2,1.4 0.7,1.8 0.4,0.4 1.1,0.6 1.9,0.6 h 1.4 v 8 H 373 c -2.5,0 -4.5,-0.7 -5.9,-2.2 -1.4,-1.5 -2.1,-3.5 -2.1,-6.1 V 73.9 h 8.3 v 33.6 z"
   id="path24" />
		<path
   class="st2"
   d="m 382.6,73.9 h 8.3 v 8.3 h -8.3 z m 0,12.6 h 8.3 v 31.4 h -8.3 z"
   id="path26" />
		<path
   class="st2"
   d="m 398.6,73.9 h 8.3 v 44 h -8.3 z m 10.8,43 c -1.3,-0.9 -2.3,-2.3 -3,-4 l 0.4,-7.2 c 0,1 0.2,1.9 0.5,2.6 0.4,0.7 0.9,1.3 1.6,1.7 0.7,0.4 1.5,0.6 2.5,0.6 1.6,0 2.8,-0.5 3.6,-1.5 0.9,-1 1.3,-2.5 1.3,-4.4 v -5 c 0,-1.9 -0.4,-3.4 -1.3,-4.5 -0.9,-1.1 -2.1,-1.6 -3.6,-1.6 -1,0 -1.8,0.2 -2.5,0.6 -0.7,0.4 -1.2,1 -1.6,1.7 -0.4,0.7 -0.5,1.7 -0.5,2.7 l -0.6,-7 c 0.8,-1.8 2,-3.3 3.3,-4.2 1.4,-1 2.9,-1.5 4.6,-1.5 2.2,0 4.1,0.5 5.7,1.6 1.6,1.1 2.8,2.6 3.6,4.7 0.8,2.1 1.2,4.5 1.2,7.4 v 5 c 0,2.9 -0.4,5.3 -1.2,7.3 -0.8,2 -2,3.6 -3.6,4.6 -1.6,1.1 -3.5,1.6 -5.7,1.6 -1.8,0.2 -3.4,-0.3 -4.7,-1.2 z"
   id="path28" />
		<path
   class="st2"
   d="m 432.3,86.5 h 8.9 v 31.4 h -8.9 z m 16.1,7.8 c -0.6,-0.2 -1.3,-0.3 -2,-0.3 -1.7,0 -3,0.5 -3.9,1.6 -0.9,1.1 -1.4,2.6 -1.4,4.5 l -0.6,-8.2 c 0.9,-1.9 2,-3.3 3.4,-4.4 1.4,-1 2.9,-1.6 4.6,-1.6 1.3,0 2.5,0.2 3.6,0.6 1.1,0.4 2,1 2.8,1.8 l -4.8,6.7 c -0.6,-0.2 -1.1,-0.5 -1.7,-0.7 z"
   id="path30" />
		<path
   class="st2"
   d="m 464.4,116.7 c -2.1,-1.1 -3.8,-2.7 -4.9,-4.8 -1.1,-2.1 -1.7,-4.6 -1.7,-7.6 v -3.5 c 0,-3.1 0.5,-5.8 1.6,-8 1.1,-2.2 2.7,-3.9 4.7,-5 2.1,-1.1 4.6,-1.7 7.5,-1.7 2.7,0 5.1,0.7 7,2.1 2,1.4 3.4,3.4 4.5,6 1,2.6 1.5,5.8 1.5,9.4 v 2.1 H 463.1 V 100 H 477 l -0.1,-0.7 c -0.2,-1.8 -0.8,-3.2 -1.7,-4.2 -0.9,-1 -2.1,-1.5 -3.7,-1.5 -2,0 -3.5,0.6 -4.6,1.8 -1.1,1.2 -1.6,2.9 -1.6,5 v 4 c 0,2.1 0.6,3.8 1.8,5 1.2,1.2 2.9,1.8 5,1.8 1.1,0 2.2,-0.2 3.3,-0.6 1.1,-0.4 2.1,-1 3,-1.7 l 5.4,4.8 c -1.6,1.5 -3.5,2.6 -5.5,3.5 -2,0.9 -4.1,1.2 -6.2,1.2 -3,-0.1 -5.6,-0.6 -7.7,-1.7 z"
   id="path32" />
	</g>
</g>
<g
   id="g50"
   transform="translate(-22.630372,-34.000939)">
	<g
   id="g48">
		<path
   class="st2"
   d="m 219.6,116 c -1.8,-1.5 -2.7,-3.7 -2.7,-6.5 0,-2.7 0.8,-4.7 2.5,-6.2 1.7,-1.5 4,-2.2 7.1,-2.2 h 9.4 l 0.4,3.7 h -9.8 c -1.8,0 -3.2,0.4 -4.2,1.2 -1,0.8 -1.5,2 -1.5,3.5 0,1.6 0.6,2.8 1.9,3.7 1.2,0.9 3,1.3 5.3,1.3 2.4,0 4.3,-0.2 5.7,-0.7 1.3,-0.5 2,-1.2 2,-2.1 l 0.6,3.7 c -0.6,0.6 -1.3,1.1 -2.2,1.5 -0.9,0.4 -1.9,0.8 -3,1 -1.1,0.2 -2.4,0.3 -3.7,0.3 -3.4,0.1 -6,-0.7 -7.8,-2.2 z m 16,-16.1 c 0,-2.3 -0.6,-4.1 -1.8,-5.3 -1.2,-1.3 -3,-1.9 -5.2,-1.9 -1.3,0 -2.7,0.2 -4,0.7 -1.3,0.4 -2.4,1.1 -3.4,1.9 l -2.9,-2 c 1.1,-1.3 2.5,-2.3 4.2,-3 1.8,-0.7 3.7,-1.1 5.9,-1.1 2.3,0 4.4,0.4 6,1.2 1.7,0.8 2.9,2 3.8,3.6 0.9,1.6 1.3,3.5 1.3,5.7 v 18.2 h -3.9 z"
   id="path38" />
		<path
   class="st2"
   d="m 252.6,116.9 c -1.8,-0.9 -3.2,-2.3 -4.1,-4.1 -0.9,-1.8 -1.3,-4.1 -1.3,-6.8 v -4.7 c 0,-2.7 0.5,-5 1.4,-6.8 0.9,-1.8 2.3,-3.2 4.1,-4.1 1.8,-0.9 4.1,-1.4 6.8,-1.4 1.5,0 3,0.2 4.2,0.5 1.3,0.3 2.4,0.8 3.4,1.5 1,0.7 1.9,1.5 2.6,2.5 l -2.9,2.6 c -1,-1.2 -2,-2 -3.3,-2.6 -1.2,-0.6 -2.5,-0.9 -4,-0.9 -2.8,0 -4.9,0.7 -6.3,2.1 -1.4,1.4 -2.1,3.5 -2.1,6.4 v 4.7 c 0,2.9 0.7,5.1 2.1,6.5 1.4,1.4 3.5,2.2 6.3,2.2 1.5,0 3,-0.3 4.2,-0.8 1.2,-0.5 2.4,-1.4 3.4,-2.5 l 2.5,2.5 c -0.7,1 -1.6,1.8 -2.6,2.5 -1,0.7 -2.1,1.1 -3.4,1.5 -1.3,0.3 -2.7,0.5 -4.2,0.5 -2.8,0.1 -5,-0.4 -6.8,-1.3 z"
   id="path40" />
		<path
   class="st2"
   d="m 280.4,116.9 c -1.8,-0.9 -3.2,-2.3 -4.1,-4.1 -0.9,-1.8 -1.3,-4.1 -1.3,-6.8 v -4.7 c 0,-2.7 0.5,-5 1.4,-6.8 0.9,-1.8 2.3,-3.2 4.1,-4.1 1.8,-0.9 4.1,-1.4 6.8,-1.4 1.5,0 3,0.2 4.2,0.5 1.3,0.3 2.4,0.8 3.4,1.5 1,0.7 1.9,1.5 2.6,2.5 l -2.9,2.6 c -1,-1.2 -2,-2 -3.3,-2.6 -1.2,-0.6 -2.5,-0.9 -4,-0.9 -2.8,0 -4.9,0.7 -6.3,2.1 -1.4,1.4 -2.1,3.5 -2.1,6.4 v 4.7 c 0,2.9 0.7,5.1 2.1,6.5 1.4,1.4 3.5,2.2 6.3,2.2 1.5,0 3,-0.3 4.2,-0.8 1.2,-0.5 2.4,-1.4 3.4,-2.5 l 2.5,2.5 c -0.7,1 -1.6,1.8 -2.6,2.5 -1,0.7 -2.1,1.1 -3.4,1.5 -1.3,0.3 -2.7,0.5 -4.2,0.5 -2.7,0.1 -5,-0.4 -6.8,-1.3 z"
   id="path42" />
		<path
   class="st2"
   d="m 308.5,116.8 c -1.9,-1 -3.3,-2.4 -4.2,-4.3 -1,-1.9 -1.5,-4.2 -1.5,-6.9 v -3.2 c 0,-2.8 0.5,-5.2 1.4,-7.2 0.9,-2 2.3,-3.5 4.1,-4.5 1.8,-1 3.9,-1.6 6.4,-1.6 2.4,0 4.4,0.5 6.1,1.5 1.7,1 3,2.5 3.8,4.5 0.8,2 1.3,4.3 1.3,7.1 v 3.2 h -20.5 v -3.5 h 16.8 v -0.3 c 0,-2.8 -0.7,-5 -2,-6.5 -1.3,-1.5 -3.2,-2.3 -5.6,-2.3 -2.6,0 -4.7,0.8 -6.1,2.4 -1.4,1.6 -2.2,3.9 -2.2,6.9 v 3.6 c 0,2.8 0.8,5 2.3,6.6 1.5,1.6 3.7,2.3 6.5,2.3 1.3,0 2.6,-0.3 3.9,-0.8 1.3,-0.5 2.4,-1.3 3.4,-2.3 l 2.7,2.6 c -1.4,1.3 -2.9,2.4 -4.7,3.1 -1.7,0.7 -3.5,1.1 -5.3,1.1 -2.5,0 -4.8,-0.5 -6.6,-1.5 z"
   id="path44" />
		<path
   class="st2"
   d="m 338.8,117.8 c -1.4,-0.3 -2.8,-0.7 -4,-1.3 -1.2,-0.6 -2.3,-1.3 -3.3,-2.1 l 2.3,-2.8 c 1.5,1 3.1,1.8 4.8,2.4 1.7,0.6 3.2,0.9 4.7,0.9 2.7,0 4.8,-0.5 6.3,-1.4 1.5,-0.9 2.2,-2.2 2.2,-3.9 0,-1.2 -0.4,-2.2 -1.1,-2.8 -0.7,-0.6 -1.6,-1 -2.7,-1.3 -1.1,-0.3 -2.6,-0.4 -4.6,-0.5 -0.2,0 -0.4,0 -0.6,0 -0.2,0 -0.4,0 -0.6,0 -0.1,0 -0.1,0 -0.2,0 -0.1,0 -0.1,0 -0.2,0 -1.9,-0.2 -3.4,-0.5 -4.7,-0.8 -1.3,-0.4 -2.3,-1 -3.2,-2 -0.8,-1 -1.3,-2.4 -1.3,-4.3 0,-1.8 0.4,-3.4 1.3,-4.6 0.9,-1.3 2.2,-2.2 3.9,-2.9 1.7,-0.7 3.7,-1 6.1,-1 1.2,0 2.5,0.1 3.7,0.4 1.2,0.2 2.4,0.6 3.6,1.1 1.1,0.5 2.2,1 3.1,1.7 l -2.3,2.7 c -1.3,-0.8 -2.7,-1.4 -4.2,-1.8 -1.5,-0.4 -2.8,-0.6 -4.1,-0.6 -2.4,0 -4.2,0.4 -5.5,1.3 -1.3,0.9 -2,2.1 -2,3.8 0,1.1 0.4,2 1.1,2.5 0.7,0.6 1.6,0.9 2.7,1.1 1.1,0.2 2.6,0.3 4.5,0.4 0.1,0 0.2,0 0.2,0 0.1,0 0.2,0 0.2,0 0.1,0 0.1,0 0.2,0 0.1,0 0.1,0 0.2,0 2,0.1 3.7,0.4 5.1,0.7 1.4,0.4 2.6,1.1 3.5,2.3 0.9,1.1 1.4,2.8 1.4,4.9 0,1.8 -0.5,3.4 -1.4,4.7 -0.9,1.3 -2.3,2.3 -4.1,3 -1.8,0.7 -4,1 -6.6,1 -1.5,-0.3 -2.9,-0.5 -4.4,-0.8 z"
   id="path46" />
	</g>
</g>
<g
   id="g102"
   transform="translate(-22.381782,-38.619546)">
	<path
   class="st4"
   d="M 28.5,80.4 V 85 h 2.1 c 1.6,0 2.5,-0.8 2.5,-2.4 0,-1.4 -0.9,-2.3 -2.5,-2.3 h -2.1 z m -3.8,-3.2 h 5.7 c 4.1,0 6.6,2.1 6.6,5.5 0,2.2 -1.1,3.9 -3,4.8 l 5.8,8.2 h -4.5 l -4.9,-7.5 h -1.9 v 7.5 h -3.8 z"
   id="path52" />
	<path
   class="st4"
   d="m 45.8,75.6 3,-3.6 h 3.9 l -3.4,3.6 z m -3.6,1.6 H 53 v 3.2 h -7.1 v 4.3 h 6 v 3.2 h -6 v 4.6 H 53 v 3.2 H 42.2 Z"
   id="path54" />
	<path
   class="st4"
   d="M 61.1,80.4 V 85 h 2.5 c 1.6,0 2.5,-0.8 2.5,-2.4 0,-1.4 -1,-2.3 -2.5,-2.3 h -2.5 z m -3.7,-3.2 h 6.1 c 4.1,0 6.6,2.1 6.6,5.5 0,3.4 -2.5,5.5 -6.6,5.5 h -2.4 v 7.5 H 57.3 V 77.2 Z"
   id="path56" />
	<path
   class="st4"
   d="m 84.1,77.2 h 3.8 v 11.3 c 0,4.9 -2.9,7.8 -7.5,7.8 -4.6,0 -7.5,-2.9 -7.5,-7.8 V 77.2 h 3.8 v 11.6 c 0,2.5 1.4,4 3.8,4 2.3,0 3.7,-1.5 3.7,-4 V 77.2 Z"
   id="path58" />
	<path
   class="st4"
   d="m 96.3,87.7 v 4.9 h 2.1 c 1.8,0 2.8,-0.9 2.8,-2.5 0,-1.5 -1.1,-2.4 -2.8,-2.4 z m 0,-7.3 v 4.1 h 1.6 c 1.4,0 2.3,-0.7 2.3,-2 0,-1.2 -0.8,-2 -2.3,-2 h -1.6 z m -3.7,-3.2 h 5.3 c 3.9,0 6.2,1.9 6.2,5 0,1.5 -0.7,2.8 -2,3.7 2,0.9 3.1,2.5 3.1,4.4 0,3.4 -2.6,5.5 -6.9,5.5 h -5.7 z"
   id="path60" />
	<polygon
   class="st4"
   points="112.8,77.2 112.8,92.4 119.8,92.4 119.8,95.8 109,95.8 109,77.2 "
   id="polygon62" />
	<polygon
   class="st4"
   points="126.9,77.2 126.9,95.8 123.1,95.8 123.1,77.2 "
   id="polygon64" />
	<path
   class="st4"
   d="m 146.4,86.5 c 0,-3.6 -2.5,-6.3 -6,-6.3 -3.5,0 -6,2.7 -6,6.3 0,3.6 2.5,6.3 6,6.3 3.5,0 6,-2.7 6,-6.3 z m 5.2,10.6 c 0.4,0 0.9,-0.1 1.3,-0.2 v 3.2 c -0.6,0.2 -1.1,0.3 -2,0.3 -2.1,0 -4,-0.8 -5.8,-2.4 l -2.2,-2 c -0.8,0.2 -1.6,0.3 -2.5,0.3 -5.9,0 -9.9,-4.5 -9.9,-9.8 0,-5.3 4,-9.8 9.9,-9.8 5.8,0 9.8,4.5 9.8,9.8 0,3.1 -1.4,5.9 -3.7,7.7 l 1.1,1.1 c 1.5,1.3 2.8,1.8 4,1.8 z"
   id="path66" />
	<path
   class="st4"
   d="m 164.8,77.2 h 3.8 v 11.3 c 0,4.9 -2.9,7.8 -7.5,7.8 -4.6,0 -7.5,-2.9 -7.5,-7.8 V 77.2 h 3.8 v 11.6 c 0,2.5 1.4,4 3.8,4 2.3,0 3.7,-1.5 3.7,-4 V 77.2 Z"
   id="path68" />
	<polygon
   class="st4"
   points="184,77.2 184,80.4 177,80.4 177,84.7 183,84.7 183,87.9 177,87.9 177,92.6 184,92.6 184,95.8 173.2,95.8 173.2,77.2 "
   id="polygon70" />
	<polygon
   class="st4"
   points="34.5,111.5 34.5,114.7 28.5,114.7 28.5,122.6 24.7,122.6 24.7,104 35.5,104 35.5,107.2 28.5,107.2 28.5,111.5 "
   id="polygon72" />
	<path
   class="st4"
   d="m 42.6,107.2 v 4.6 h 2.1 c 1.6,0 2.5,-0.8 2.5,-2.4 0,-1.4 -0.9,-2.3 -2.5,-2.3 H 42.6 Z M 38.8,104 h 5.7 c 4.1,0 6.6,2.1 6.6,5.5 0,2.2 -1.1,3.9 -3,4.8 l 5.8,8.2 H 49.4 L 44.5,115 h -1.9 v 7.5 h -3.8 z"
   id="path74" />
	<path
   class="st4"
   d="m 66.8,114.5 -2.5,-7 -2.5,7 z m -5,-10.5 h 4.9 l 7,18.6 h -4 l -1.8,-4.8 h -7.4 l -1.8,4.8 h -4 z"
   id="path76" />
	<polygon
   class="st4"
   points="93.5,122.6 88.7,122.6 80.4,109.2 80.4,122.6 76.6,122.6 76.6,104 81.5,104 89.8,117.3 89.8,104 93.5,104 "
   id="polygon78" />
	<path
   class="st4"
   d="m 111.9,117 3,2.3 c -1.4,2 -3.7,3.3 -6.4,3.7 l -2.3,3.8 h -3.3 l 2.3,-3.9 c -4.8,-0.8 -8,-4.9 -8,-9.7 0,-5.3 4,-9.8 9.9,-9.8 3.4,0 6.1,1.5 7.8,3.8 l -3,2.3 c -1.1,-1.5 -2.7,-2.5 -4.9,-2.5 -3.5,0 -6,2.7 -6,6.3 0,3.6 2.5,6.3 6,6.3 2.1,0 3.8,-1.1 4.9,-2.6 z"
   id="path80" />
	<path
   class="st4"
   d="m 127.7,114.5 -2.5,-7 -2.5,7 z m -5,-10.5 h 4.9 l 7,18.6 h -4 l -1.8,-4.8 h -7.4 l -1.8,4.8 h -4 z"
   id="path82" />
	<polygon
   class="st4"
   points="141.3,104 141.3,122.6 137.5,122.6 137.5,104 "
   id="polygon84" />
	<path
   class="st4"
   d="m 147.5,117.5 c 1.1,1.4 2.6,2.3 4.1,2.3 1.5,0 2.4,-0.8 2.4,-2.1 0,-3.3 -8.5,-2.6 -8.5,-8.8 0,-2.9 2.4,-5.4 5.9,-5.4 2.8,0 4.9,1.2 6.5,3.1 l -2.8,2.5 c -1.1,-1.4 -2.3,-2.3 -3.7,-2.3 -1.3,0 -2.1,0.8 -2.1,1.9 0,3.3 8.5,2.5 8.5,8.8 -0.1,3.4 -2.8,5.6 -6.2,5.6 -3.1,0 -5.3,-1.1 -6.9,-3.1 z"
   id="path86" />
	<polygon
   class="st4"
   points="172.6,104 172.6,107.2 165.6,107.2 165.6,111.5 171.6,111.5 171.6,114.7 165.6,114.7 165.6,119.4 172.6,119.4 172.6,122.6 161.8,122.6 161.8,104 "
   id="polygon88" />
	<path
   class="st4"
   d="m 30.1,180 0.1,-0.4 c -1.8,-0.3 -2,-0.3 -1.3,-2.3 l 0.7,-2 h 2 c 0.9,0 0.9,0.4 0.8,1.3 h 0.5 l 1.2,-3.3 h -0.5 c -0.4,0.8 -0.8,1.3 -1.8,1.3 h -2 l 1,-2.9 c 0.3,-0.9 0.5,-1.1 1.7,-1.1 h 0.9 c 1.3,0 1.4,0.3 1.4,1.6 h 0.5 l 0.4,-2.2 h -7.5 l -0.1,0.4 c 1.5,0.3 1.6,0.4 0.9,2.3 l -1.6,4.5 c -0.7,1.9 -1,2 -2.6,2.3 l -0.1,0.4 h 5.4 z m 10.4,-5.5 c 0.3,-0.9 0.1,-1.7 -0.6,-1.7 -0.8,0 -1,0.6 -1.8,2.4 v -1 c 0,-0.7 -0.2,-1.4 -0.9,-1.4 -0.8,0 -1.5,1.2 -2,2.4 h 0.4 c 0.4,-0.5 0.7,-0.8 1,-0.8 0.3,0 0.5,0.5 0,1.6 l -1.5,3.3 c -0.3,0.6 0,1 0.6,1 0.4,0 0.5,-0.1 0.7,-0.5 l 1.4,-3.8 c 0.4,-0.5 0.8,-0.9 1.2,-1.4 h 1.5 z m 6.6,-2 h -0.6 l -0.6,0.6 h -0.1 c -3.1,0 -5.8,3.5 -5.8,6 0,0.7 0.4,1.1 1.1,1.1 0.8,0 1.6,-1.1 2.5,-2.4 v 0.4 c -0.1,1.3 0.3,1.9 0.9,1.9 0.8,0 1.5,-1.2 2,-2.4 h -0.4 c -0.4,0.5 -0.7,0.8 -1,0.8 -0.3,0 -0.5,-0.5 0,-1.6 z m -5.7,5.6 c 0,-1.7 1.9,-3.9 2.9,-3.9 0.2,0 0.4,0 0.6,0.1 l -1.1,2.9 c -0.6,0.8 -1.6,1.7 -2,1.7 -0.3,-0.1 -0.4,-0.3 -0.4,-0.8 m 6.8,-4.2 h 1.3 l -2,5.4 c -0.2,0.5 0.1,0.9 0.5,0.9 1.1,0 3,-1.1 3.6,-2.6 h -0.4 c -0.5,0.5 -1.5,1.2 -2.3,1.4 l 1.8,-5.1 h 1.9 l 0.2,-0.8 H 51 l 0.7,-2 H 51 l -1.3,2 -1.5,0.2 z m 8.9,3.7 h -0.5 c -0.6,0.7 -1.2,1.2 -1.8,1.2 -0.6,0 -1,-0.4 -1,-1.2 0,-0.4 0,-0.7 0.1,-1 l 3.8,-1.2 c 0.7,-1.7 -0.1,-2.5 -1.2,-2.5 -1.8,0 -3.8,3 -3.8,5.6 0,1.2 0.6,1.8 1.4,1.8 1.1,-0.1 2.2,-1.1 3,-2.7 m -1.3,-3.8 c 0.5,0 0.9,0.4 0.7,1.3 l -2.3,0.5 c 0.4,-1 1.1,-1.8 1.6,-1.8 m 8.4,0.7 c 0.3,-0.9 0.1,-1.7 -0.6,-1.7 -0.8,0 -1,0.6 -1.8,2.4 v -1 c 0,-0.7 -0.2,-1.4 -0.9,-1.4 -0.8,0 -1.5,1.2 -2,2.4 h 0.4 c 0.4,-0.5 0.7,-0.8 1,-0.8 0.3,0 0.5,0.5 0,1.6 l -1.5,3.3 c -0.3,0.6 0,1 0.6,1 0.4,0 0.5,-0.1 0.7,-0.5 l 1.4,-3.8 c 0.4,-0.5 0.8,-0.9 1.2,-1.4 h 1.5 z m 0,4.7 c -0.3,0.6 0,1 0.6,1 0.4,0 0.5,-0.1 0.7,-0.5 l 1.4,-3.8 c 0.7,-0.8 2,-1.7 2.6,-1.7 0.4,0 0.3,0.3 0.1,0.8 l -2.2,4.3 c -0.2,0.4 0.1,0.9 0.5,0.9 1.1,0 2.4,-1 2.9,-2.4 h -0.4 c -0.4,0.5 -1,1.1 -1.5,1.2 l 1.9,-3.9 c 0.2,-0.5 0.4,-1 0.4,-1.3 0,-0.6 -0.4,-1 -1,-1 -0.9,0 -1.9,1.1 -3,2.4 v -1 c 0,-0.7 -0.2,-1.4 -0.9,-1.4 -0.4,0 -0.8,0.4 -1.2,0.9 v 0.1 c 0.7,0 1,1 0.5,2.1 z m 12,-8.3 c 0.5,0 0.9,-0.4 0.9,-0.9 0,-0.5 -0.4,-0.9 -0.9,-0.9 -0.5,0 -0.9,0.4 -0.9,0.9 0,0.5 0.4,0.9 0.9,0.9 m -0.4,2.7 c 0.1,-0.5 -0.2,-0.8 -0.4,-0.8 -1.1,0 -2.4,1 -2.9,2.4 h 0.4 c 0.4,-0.5 1,-1.1 1.5,-1.2 l -2.1,5.4 c -0.2,0.5 0.2,0.8 0.4,0.8 1,0 2.2,-1 2.8,-2.4 h -0.4 c -0.4,0.5 -1,1.1 -1.5,1.2 z m 1.7,0.3 h 1.3 l -2,5.4 c -0.2,0.5 0.1,0.9 0.5,0.9 1.1,0 3,-1.1 3.6,-2.6 h -0.4 c -0.5,0.5 -1.5,1.2 -2.3,1.4 l 1.8,-5.1 h 2 l 0.2,-0.8 h -1.8 l 0.7,-2 h -0.7 l -1.3,2 -1.5,0.2 v 0.6 z m 8.2,-1.8 2.7,-2.5 v -0.3 H 87 l -1.6,2.8 z m 0.7,5.5 H 86 c -0.6,0.7 -1.2,1.2 -1.8,1.2 -0.6,0 -1,-0.4 -1,-1.2 0,-0.4 0,-0.7 0.1,-1 l 3.8,-1.2 c 0.7,-1.7 -0.1,-2.5 -1.2,-2.5 -1.8,0 -3.8,3 -3.8,5.6 0,1.2 0.6,1.8 1.4,1.8 1,-0.1 2,-1.1 2.9,-2.7 m -1.3,-3.8 c 0.5,0 0.9,0.4 0.7,1.3 l -2.3,0.5 c 0.4,-1 1.1,-1.8 1.6,-1.8"
   id="path90" />
	<path
   class="st4"
   d="m 32.7,152.3 2.7,-1.8 v -0.3 h -1.6 l -1.5,2.1 z m -1,5.7 c 0.9,0 0.9,0.4 0.8,1.3 H 33 l 1.2,-3.3 h -0.5 c -0.4,0.8 -0.8,1.3 -1.8,1.3 h -2 l 1,-2.7 c 0.3,-0.9 0.5,-1.1 1.7,-1.1 h 0.9 c 1.3,0 1.4,0.3 1.4,1.6 h 0.5 l 0.4,-2.2 h -7.5 l -0.1,0.4 c 1.5,0.3 1.6,0.4 0.9,2.3 l -1.6,4.5 c -0.7,1.9 -1,2 -2.6,2.3 l -0.1,0.4 H 33 l 1.5,-2.4 H 34 c -1,0.9 -2.2,1.8 -3.8,1.8 -2.2,0 -2,-0.1 -1.3,-2.1 l 0.8,-2.2 h 2 z m 9.5,5.9 c 0,-0.9 -0.8,-1.2 -2,-1.6 -1.1,-0.3 -1.6,-0.4 -1.6,-0.8 0,-0.3 0.2,-0.6 0.7,-0.9 1.8,-0.1 2.9,-1.7 2.9,-3 0,-0.3 -0.1,-0.5 -0.1,-0.7 h 1.5 l 0.2,-0.8 h -2.4 c -0.3,-0.2 -0.6,-0.3 -1,-0.3 -1.9,0 -3.1,1.7 -3.1,3 0,1 0.7,1.7 1.4,1.8 -0.9,0.4 -1.4,0.9 -1.4,1.4 0,0.3 0.1,0.5 0.4,0.7 -2,0.6 -2.8,1.3 -2.8,2.2 0,0.9 1.2,1.3 2.7,1.3 2.5,0.1 4.6,-1.2 4.6,-2.3 m -3,-3.8 c -0.4,0 -0.6,-0.4 -0.6,-0.8 0,-1.2 0.7,-3 1.7,-3 0.4,0 0.6,0.4 0.6,0.8 0,1.3 -0.7,3 -1.7,3 m -2.8,4.4 c 0,-0.7 0.7,-1.2 1.7,-1.6 0.3,0.2 0.8,0.3 1.5,0.6 1,0.3 1.4,0.5 1.4,0.8 0,0.7 -1.1,1.2 -2.7,1.2 -1.3,0 -1.9,-0.3 -1.9,-1 m 13.9,-9 h -0.6 l -0.6,0.6 H 48 c -3.1,0 -5.8,3.5 -5.8,6 0,0.7 0.4,1.1 1.1,1.1 0.8,0 1.6,-1.1 2.5,-2.4 v 0.4 c -0.1,1.3 0.3,1.9 0.9,1.9 0.8,0 1.5,-1.2 2,-2.4 h -0.4 c -0.4,0.5 -0.7,0.8 -1,0.8 -0.3,0 -0.5,-0.5 0,-1.6 z m -5.8,5.6 c 0,-1.7 1.9,-3.9 2.9,-3.9 0.2,0 0.4,0 0.6,0.1 l -1.1,2.9 c -0.6,0.8 -1.6,1.7 -2,1.7 -0.2,-0.1 -0.4,-0.3 -0.4,-0.8 m 7.2,0.9 3.8,-10 -0.1,-0.1 -2.4,0.3 v 0.3 l 0.5,0.4 c 0.4,0.3 0.3,0.6 -0.1,1.6 l -3,7.8 c -0.2,0.4 0.1,0.9 0.5,0.9 1.1,0 2.2,-1 2.8,-2.4 h -0.4 c -0.3,0.6 -1,1.1 -1.6,1.2 m 7.3,-8.1 c 0.5,0 0.9,-0.4 0.9,-0.9 0,-0.5 -0.4,-0.9 -0.9,-0.9 -0.5,0 -0.9,0.4 -0.9,0.9 0,0.5 0.4,0.9 0.9,0.9 m -0.4,2.7 c 0.1,-0.5 -0.2,-0.8 -0.4,-0.8 -1.1,0 -2.4,1 -2.9,2.4 h 0.4 c 0.4,-0.5 1,-1.1 1.5,-1.2 l -2.1,5.4 c -0.2,0.5 0.2,0.8 0.4,0.8 1,0 2.2,-1 2.8,-2.4 h -0.4 c -0.4,0.5 -1,1.1 -1.5,1.2 z m 1.7,0.3 h 1.3 l -2,5.4 c -0.2,0.5 0.1,0.9 0.5,0.9 1.1,0 3,-1.1 3.6,-2.6 h -0.4 c -0.5,0.5 -1.5,1.2 -2.3,1.4 l 1.8,-5.1 h 1.9 l 0.2,-0.8 h -1.8 l 0.7,-2 h -0.7 l -1.3,2 -1.5,0.2 z m 8.1,-1.8 2.7,-2.5 v -0.3 h -1.4 l -1.6,2.8 z m 0.8,5.5 h -0.5 c -0.6,0.7 -1.2,1.2 -1.8,1.2 -0.6,0 -1,-0.4 -1,-1.2 0,-0.4 0,-0.7 0.1,-1 l 3.8,-1.2 c 0.7,-1.7 -0.1,-2.5 -1.2,-2.5 -1.8,0 -3.8,3 -3.8,5.6 0,1.2 0.6,1.8 1.4,1.8 1.1,-0.1 2.1,-1.1 3,-2.7 m -1.3,-3.8 c 0.5,0 0.9,0.4 0.7,1.3 l -2.3,0.5 c 0.4,-1 1,-1.8 1.6,-1.8"
   id="path92" />
	<path
   class="st4"
   d="m 33.2,136 h -5 l -0.1,0.4 c 1.5,0.3 1.6,0.4 0.9,2.3 l -1.6,4.5 c -0.7,1.9 -1,2 -2.6,2.3 l -0.1,0.4 h 7.5 l 1.6,-2.9 h -0.6 c -0.9,1 -2,2.3 -3.7,2.3 -1.3,0 -1.4,-0.2 -0.7,-2.1 l 1.6,-4.5 c 0.7,-1.9 1,-2 2.6,-2.3 z m 5.5,0.9 c 0.5,0 0.9,-0.4 0.9,-0.9 0,-0.5 -0.4,-0.9 -0.9,-0.9 -0.5,0 -0.9,0.4 -0.9,0.9 0,0.5 0.4,0.9 0.9,0.9 m -0.4,2.7 c 0.1,-0.5 -0.2,-0.8 -0.4,-0.8 -1.1,0 -2.4,1 -2.9,2.4 h 0.4 c 0.4,-0.5 1,-1.1 1.5,-1.2 l -2.1,5.4 c -0.2,0.5 0.2,0.8 0.4,0.8 1,0 2.2,-1 2.8,-2.4 h -0.4 c -0.4,0.5 -1,1.1 -1.5,1.2 z m 7.4,0.7 c 0,-1.1 -0.4,-1.5 -1.2,-1.5 -1,0 -1.9,1 -2.8,2.2 l 2.3,-6 -0.1,-0.1 -2.4,0.3 v 0.3 l 0.5,0.4 c 0.4,0.3 0.3,0.7 -0.1,1.6 l -2.5,6.3 c -0.2,0.5 -0.4,1 -0.4,1.2 0,0.7 0.9,1.3 1.7,1.3 2,-0.1 5,-3.4 5,-6 m -4.2,4.8 c -0.4,0 -0.9,-0.3 -0.9,-0.6 0,-0.1 0.2,-0.5 0.4,-1 l 0.6,-1.6 c 0.7,-0.8 1.6,-1.6 2.2,-1.6 0.3,0 0.6,0.2 0.6,0.7 -0.1,1.4 -1.4,4.1 -2.9,4.1 m 9.2,-1.5 h -0.5 c -0.6,0.7 -1.2,1.2 -1.8,1.2 -0.6,0 -1,-0.4 -1,-1.2 0,-0.4 0,-0.7 0.1,-1 l 3.8,-1.2 c 0.7,-1.7 -0.1,-2.5 -1.2,-2.5 -1.8,0 -3.8,3 -3.8,5.6 0,1.2 0.6,1.8 1.4,1.8 1.1,-0.1 2.1,-1.1 3,-2.7 m -1.3,-3.8 c 0.5,0 0.9,0.4 0.7,1.3 l -2.3,0.5 c 0.4,-1 1.1,-1.8 1.6,-1.8 m 8.4,0.7 c 0.3,-0.9 0.1,-1.7 -0.6,-1.7 -0.8,0 -1,0.6 -1.8,2.4 v -1 c 0,-0.7 -0.2,-1.4 -0.9,-1.4 -0.8,0 -1.5,1.2 -2,2.4 h 0.4 c 0.4,-0.5 0.7,-0.8 1,-0.8 0.3,0 0.5,0.5 0,1.6 l -1.5,3.3 c -0.3,0.6 0,1 0.6,1 0.4,0 0.5,-0.1 0.7,-0.5 l 1.4,-3.8 c 0.4,-0.5 0.8,-0.9 1.2,-1.4 h 1.5 z m 0.9,-0.7 h 1 l -2,5.4 c -0.2,0.5 0.1,0.9 0.5,0.9 1.1,0 3,-1.1 3.6,-2.6 h -0.4 c -0.5,0.5 -1.5,1.2 -2.3,1.4 l 1.8,-5.1 h 1.9 L 63,139 h -1.8 l 0.7,-2 h -0.7 l -1.3,2 -1.3,0.2 v 0.6 z m 7.8,-1.7 2.7,-2.5 v -0.3 h -1.4 l -1.6,2.8 z m 0.8,5.5 h -0.5 c -0.6,0.7 -1.2,1.2 -1.8,1.2 -0.6,0 -1,-0.4 -1,-1.2 0,-0.4 0,-0.7 0.1,-1 l 3.8,-1.2 c 0.7,-1.7 -0.1,-2.5 -1.2,-2.5 -1.8,0 -3.8,3 -3.8,5.6 0,1.2 0.6,1.8 1.4,1.8 1.1,-0.1 2.1,-1.1 3,-2.7 M 66,139.8 c 0.5,0 0.9,0.4 0.7,1.3 l -2.3,0.5 c 0.4,-1 1.1,-1.8 1.6,-1.8"
   id="path94" />
	<path
   class="st5"
   d="m 44.5,57.9 c 0,0 0.1,0 0.2,-0.1 -0.1,0 -0.2,0 -0.4,0 0,0 0,0 0,-0.1 -0.2,0 -0.5,0.1 -0.7,0.2 -0.3,0.1 -0.6,0.3 -1,0.4 -0.5,0.2 -0.9,0.6 -1.5,0.8 0,0 0,0 0,-0.1 0,-0.1 0.2,-0.2 0.3,-0.3 0,0 0,-0.1 0,-0.1 0.4,-0.5 0.9,-0.8 1.4,-1.2 0,0 0,-0.1 0,-0.1 0.1,-0.2 0.4,-0.3 0.5,-0.5 0,-0.1 0.2,-0.3 0.5,-0.4 0,0 -0.1,0 -0.1,-0.1 -0.2,0 -0.4,0.1 -0.6,0 -0.1,-0.3 0,-0.3 0.1,-0.3 0,0 -0.1,0 -0.1,-0.1 0,-0.1 0.1,-0.2 0.2,-0.2 0.2,0 0.4,0 0.6,-0.2 -0.3,0 -0.7,0.1 -1,-0.1 0.2,-0.6 0.6,-1.1 1.2,-1.4 0,0 0.1,0 0.1,0 0,0.2 -0.1,0.4 -0.4,0.5 0.4,0.1 0.7,0.1 1.1,0.3 0,0.1 -0.1,0 -0.2,0 0.2,0.1 0.5,0 0.7,0.2 -0.1,0.1 -0.3,0 -0.4,0 1.4,0.4 3,0.7 4.2,1.7 -1,0.5 -2.1,0.7 -3.2,1 -0.1,0 -0.2,0 -0.4,0 0,0 0,0.1 0,0.1 -0.2,0 -0.3,0 -0.5,0.1 -0.2,0.1 -0.4,0.1 -0.6,0 z m -0.9,3.2 c 0,0 0,0 0,0 -0.2,0.1 -0.4,0.3 -0.5,0.4 -0.2,0.1 -0.4,0.2 -0.6,0.3 0,0 0,0 0,0 0,0 0,0 -0.1,0 -0.2,0.1 -0.3,0.2 -0.5,0.4 0,0 0,0 -0.1,0.1 0,0 0,0 0,0 0,0 0,0 0,0 0,0 0,0 -0.1,0.1 0,0 0,0 0,0 0,0 0,0 0,0 0,0 -0.1,0.1 -0.1,0.1 0,0 0,0 -0.1,0.1 0,0 -0.1,0 -0.1,0 0,0 0,0 0,0 0,0 -0.1,0 -0.1,0 0,0 0,0 -0.1,0 0,0 0,0 0,0 0,0 0,0 0,0 -0.1,0 -0.1,0.1 -0.2,0.1 -0.1,0.1 -0.2,0.2 -0.3,0.3 0,0 0,0 0,0 0,0 0,0 0,0 0,0 0,0 0,0 0,0 0,0 0,0 0,0 0,0 0,0 0,0 0,0 0,0 0,0 0,0 0,0 0,0 0,0 0,0 0,0 0,0 0,0 0,0 0,0 0,0 0,0 0,0 0,-0.1 0,0 0,0 0,0 0,0 0,0 0,0 0.1,-0.1 0.1,-0.1 0.1,-0.2 0,0 0,0 0,0 0,0 0,0 0,-0.1 0,0 0.1,-0.1 0.1,-0.1 0,0 0,0 0,0 0.1,-0.1 0.1,-0.1 0.1,-0.2 0,0 0,0 0,0 0,0 0,0 0,0 0,0 0,-0.1 0.1,-0.1 0,0 0,-0.1 0.1,-0.1 0,0 0,0 0,0 0,0 0,0 0,0 0,0 0,0 0,0 0,0 0,-0.1 0,-0.1 0,0 0,0 0,0 0,0 0,0 0,0 0,0 0,0 0,-0.1 v 0 c 0,0 0,0 0,0 0,0 0,0 0,-0.1 0,0 0,0 0,0 0,-0.1 0.1,-0.2 0.2,-0.3 0,0 0,0 0,0 -0.1,0 -0.1,0.1 -0.2,0.1 -0.1,0 -0.1,0 -0.1,-0.1 0,0 0.1,-0.1 0.1,-0.1 0,0 0,0 0,0 0.1,-0.1 0.2,-0.2 0.2,-0.2 0.1,0 0.1,-0.1 0.1,-0.1 0,0 0,0 0,0 0,0 0.1,-0.1 0.1,-0.1 0,0 0,0 0,0 0.4,-0.4 1.2,-0.4 1.8,-0.7 0.2,-0.1 0.5,0 0.7,0 0.1,0 0.3,0 0.4,0.1 -0.2,0.2 -0.6,0.5 -0.9,0.7 z m 0.8,0.4 c 0,0.1 -0.1,0.1 -0.1,0.1 0.1,0 0.1,0 0.1,0.1 -0.1,0.1 -0.2,0.2 -0.4,0.2 0,0 0,0 -0.1,0 -0.1,0.1 -0.1,0.1 -0.2,0.2 -0.1,0 -0.3,0 -0.2,-0.1 0.1,-0.1 0.2,-0.2 0.3,-0.3 0.1,-0.1 0.1,-0.1 0.2,-0.2 0,0 0.1,-0.1 0.1,-0.1 0.1,0.1 0.3,0 0.3,0.1 z m -2.2,-7 c 0,0.1 -0.1,0.1 -0.1,0.2 0,0.1 -0.1,0.1 -0.2,0.2 0,0 -0.1,0 -0.1,0 0.1,-0.2 0.2,-0.4 0.4,-0.4 0,0 0,0 0,0 z m -3.8,3.1 c 0,0 -0.1,0 0,0 0.6,-0.9 1,-1.6 1.4,-2.5 0.6,-0.3 1.1,-0.8 1.6,-1.3 0.8,-0.8 1.6,-1.6 2.6,-2.1 0.4,-0.1 0.8,-0.1 1.2,0 -0.1,0.2 -0.4,0.1 -0.6,0.3 0,0 -0.1,0 -0.1,0 0,0 0,-0.1 0,-0.1 -0.5,0.5 -1.1,0.7 -1.5,1.4 -0.3,0.5 -0.5,1.1 -1.1,1.2 -0.2,0 0,-0.1 0,-0.1 -1.4,0.9 -2.4,2 -3.5,3.2 z m 7.1,1 c -0.1,0 -0.3,0 -0.2,0 0,-0.2 0.4,-0.2 0.6,-0.3 0.1,0 0.2,-0.1 0.3,-0.1 0.1,0.1 0.2,0.1 0.3,0.2 -0.3,0.2 -0.7,0.1 -1,0.2 z m 7.2,3.4 c 0.3,-0.3 0.5,-0.5 0.8,-0.8 v 0 c 0.5,-0.6 1,-1.1 1.6,-1.6 0.2,-0.2 0.3,-0.3 0.5,-0.4 0,0 0,-0.1 0.1,-0.2 -0.2,0.1 -0.4,0.3 -0.6,0.4 0,0 -0.1,0 0,-0.1 0.2,-0.1 0.3,-0.2 0.5,-0.4 0,0 0,0 0,0 0,0 0,0 0,-0.1 -0.6,-0.1 -1.1,0.3 -1.5,0.7 -0.1,0 -0.2,0 -0.2,0 -0.7,0.2 -1.2,0.8 -1.9,1.1 0,0 0,0 0,-0.1 -0.3,0.1 -0.6,0.3 -0.8,0.3 -0.4,0.1 -0.8,0 -1.2,0 -0.6,0.1 -1.1,0.2 -1.7,0.3 0,0 0,0 0,0 -0.3,0.1 -0.6,0.2 -0.9,0.3 0,0 0,0 0,0 0,0 0,0.1 -0.1,0.1 -0.1,0.1 -0.2,0.2 -0.3,0.3 -0.3,0.1 -0.5,0.4 -0.8,0.6 0,0 0,0 -0.1,0 -0.2,0.2 -0.5,0.5 -0.8,0.7 0,0 -0.1,0 -0.1,0 0,0 0,0 0,0 0,0 0,0 0,0 0,-0.1 0.1,-0.1 0.1,-0.2 0,-0.1 0.1,-0.1 0.1,-0.2 0.1,-0.1 0.1,-0.2 0.2,-0.3 0,0 0,0 0,-0.1 0,0 0,0 -0.1,0 0.2,-0.2 0.5,-0.4 0.8,-0.6 0,0 0,0 0,0 0,0 -0.1,0 -0.1,0 0,0 0.1,-0.1 0.1,-0.1 0,0 0,0 0,0 0,0 0,0 0,0 -0.1,0 -0.2,0.1 -0.2,0.2 -0.1,0.1 -0.2,0.3 -0.4,0.3 0,0 0,0 -0.1,0 0,0 0,0 0,0 0,0 0,0 0,0 0,0 0,0 0,0 0,0 0,0 0,0 0,0 0,0 0,0 0,0 0,0 0,0 0,0 0,0 0,0 0,0 0,0 0,-0.1 0,0 0,0 0,0 0,0 0,-0.1 0.1,-0.1 0,0 0,0 0,0 0,0 0,-0.1 0,-0.1 0,0 0,-0.1 0,-0.1 0.1,-0.1 0.2,-0.2 0.3,-0.3 v 0 c 0.2,-0.1 0.4,-0.2 0.5,-0.3 0,0 0.1,0 0.1,-0.1 -0.3,0.1 -0.5,0.2 -0.7,0.4 0,0 -0.1,0 -0.1,0 0,0 -0.1,0 -0.1,0 0,0 0,0 0,0 0,-0.1 0.2,-0.1 0.3,-0.2 0,0 0.1,0 0.1,0 1.5,-1.2 3.5,-0.9 5.3,-1.5 0.1,-0.1 0.3,-0.2 0.4,-0.3 0.2,-0.1 0.4,-0.3 0.7,-0.5 0.4,-0.3 0.7,-0.6 0.8,-1.1 0,0 0,-0.1 0,-0.1 -0.6,0.7 -1.3,1.2 -2.1,1.5 -1,0.5 -2.1,0.4 -3.1,0.6 0,-0.1 0.1,-0.1 0.2,-0.1 0,-0.1 0.1,-0.2 0.2,-0.3 0,0 0.1,0 0.1,0 0,0 0,-0.1 0.1,-0.1 0.1,0 0.2,0 0.2,0 -0.1,-0.2 -0.4,0.1 -0.7,0 0.1,-0.1 0,-0.2 0.1,-0.3 0,0 0.1,0 0.2,0 0,-0.1 0.1,-0.2 0.1,-0.2 0.7,-0.4 1.4,-0.7 2,-1.1 -0.1,0 -0.2,0.1 -0.4,0 0.1,0 0,-0.1 0.1,-0.1 0.5,-0.1 0.9,-0.4 1.4,-0.6 -0.2,0 -0.3,0.1 -0.5,0 0.1,0 0.1,-0.1 0.3,-0.1 0,0 0,-0.1 0,-0.1 0,0 0,0 0.1,0 0,0 -0.1,0 -0.1,0 0,-0.1 0.2,0 0.3,-0.1 0,0 -0.1,0 -0.1,0 0.1,-0.2 0.4,-0.2 0.6,-0.3 0,-0.1 -0.2,0 -0.2,-0.1 0,0 0,0 0.1,0 0,0 0,0 -0.1,0 -0.1,0 0,-0.1 0,-0.2 0.3,-0.3 0.3,-0.7 0.4,-1.1 0,0 -0.1,0 -0.1,0 -0.5,0.5 -1.2,0.7 -1.9,0.9 0,0 -0.2,0 -0.2,0 -0.2,0.1 -0.6,0.1 -0.8,0 -0.2,-0.1 -0.3,-0.2 -0.5,-0.4 -0.4,-0.2 -0.7,-0.4 -1.2,-0.6 -1.2,-0.4 -2.4,-0.6 -3.6,-0.5 0.5,-0.3 1.1,-0.3 1.6,-0.5 0.8,-0.2 1.5,-0.5 2.4,-0.5 -0.1,0 -0.3,0 -0.5,0 -0.7,0 -1.3,0.1 -2,0.3 -0.5,0.1 -0.9,0.3 -1.4,0.4 -0.3,0.1 -0.4,0.4 -0.7,0.3 0,0 0,-0.1 0,-0.1 0.5,-0.6 1,-1.1 1.8,-1.2 0.8,-0.1 1.6,0 2.5,0.1 0.6,0 1.2,0.2 1.8,0.3 0.2,0 0.3,0.4 0.5,0.4 0.3,0.1 0.6,0 0.8,0.2 0,-0.1 0,-0.2 0,-0.3 0.2,-0.2 0.4,0 0.6,0 0.4,-0.2 -0.3,-0.7 -0.5,-1 0,0 0,-0.1 0,-0.1 0.4,0.3 0.7,0.7 1.1,0.9 0.2,0.1 0.8,0.2 0.7,0 -0.2,-0.5 -0.7,-0.9 -1.1,-1.4 0,0 0,-0.1 0,-0.2 -0.1,0 -0.1,0 -0.1,-0.1 0,0 0,-0.1 0,-0.2 -0.2,-0.1 -0.1,-0.3 -0.2,-0.4 -0.1,-0.2 0,-0.6 -0.1,-0.8 -0.1,-0.3 -0.1,-0.5 -0.2,-0.8 -0.1,-0.8 -0.3,-1.5 -0.4,-2.2 -0.1,-0.9 0.5,-1.6 0.9,-2.4 0.3,-0.6 0.7,-1.1 1.3,-1.5 0.1,-0.6 0.5,-1 0.9,-1.5 0.4,-0.5 1,-0.7 1.4,-0.9 0.7,-0.3 1.2,-0.5 1.2,-0.5 h -32 v 24.7 h 22.6 c 0.9,-0.6 1.8,-0.9 3,-1.6 0.8,-0.7 2.1,-1.4 2.6,-1.8 z"
   id="path96" />
	<path
   class="st6"
   d="M 92.4,40.2 H 65.9 c 0,0 0,0 0.3,0.1 0.2,0.1 0.5,0.3 0.7,0.4 0.3,0.2 0.7,0.4 0.9,0.7 0.1,0.1 0.2,0.4 0.1,0.6 -0.1,0.2 -0.1,0.6 -0.4,0.7 -0.3,0.1 -0.7,0.1 -1,0.1 -0.2,0 -0.4,0 -0.6,-0.1 0.7,0.3 1.4,0.6 1.8,1.3 0,0.1 0.2,0.1 0.4,0.1 0,0 0,0.1 0,0.1 -0.1,0.1 -0.2,0.1 -0.1,0.3 0,0 0.1,0 0.1,0 0.2,-0.1 0.2,-0.6 0.5,-0.4 0.2,0.1 0.3,0.5 0.2,0.7 -0.2,0.2 -0.4,0.3 -0.6,0.5 0,0.1 0,0.2 0,0.3 0.1,0.2 0.2,0.4 0.2,0.6 0.1,0.3 0.2,0.7 0.3,1 0.2,0.7 0.4,1.4 0.3,2.1 0,0.4 -0.2,0.7 0,1.1 0.1,0.4 0.3,0.7 0.5,1 0.2,0.3 0.4,0.5 0.5,0.7 0.3,0.5 0.8,0.9 0.6,1.5 -0.1,0.3 -0.7,0.3 -1,0.5 -0.3,0.2 0,0.6 0.1,0.8 0.2,0.4 -0.3,0.7 -0.6,0.8 0.1,0.1 0.3,0.1 0.3,0.2 0,0.2 0.3,0.4 0.1,0.6 -0.2,0.3 -0.7,0.4 -0.5,0.8 0.2,0.3 0.1,0.7 0,1 -0.1,0.4 -0.5,0.6 -0.8,0.7 -0.3,0.1 -0.6,0.1 -0.9,0 -0.1,0 -0.2,-0.1 -0.3,-0.1 -0.8,-0.1 -1.6,-0.3 -2.4,-0.3 -0.2,0 -0.5,0.1 -0.7,0.2 -0.2,0.2 -0.4,0.3 -0.6,0.5 0,0 0,0 0,0 0,0 -0.1,0.1 -0.1,0.1 0,0 0,0 -0.1,0.1 0,0 0,0 0,0 -0.1,0.2 -0.3,0.3 -0.4,0.5 0,0 0,0 0,0 0,0 0,0 0,0.1 -0.2,0.3 -0.3,0.6 -0.4,0.9 -0.3,1.1 -0.2,2 0,2.2 0.1,0.1 1.5,0.5 2.6,1 0.5,0.2 0.8,0.4 1.1,0.6 H 92 V 40.2 Z"
   id="path98" />
	<path
   class="st7"
   d="m 67.5,49.2 c 0.2,0 0.5,0 0.5,0.1 -0.1,0.4 -0.7,0.5 -0.9,0.8 H 67 c -0.1,0.1 -0.1,0.3 -0.2,0.3 -0.1,0 -0.3,0 -0.4,0 0.2,0.2 0.4,0.3 0.7,0.3 0,0 0.1,0.1 0.1,0.2 0,0 0,0 0.1,0 0,0 0.1,0 0.1,0 v 0.2 c -0.1,0.2 -0.4,0.1 -0.6,0.1 0.4,0.1 0.7,0.1 1.1,0 0.3,-0.1 0,-0.6 0.2,-0.8 -0.1,0 0,-0.1 -0.1,-0.1 0.1,-0.1 0.2,-0.2 0.3,-0.3 0.1,0 0.2,0 0.3,-0.1 0,-0.1 -0.2,-0.1 -0.1,-0.2 0.3,-0.2 0.5,-0.5 0.4,-0.7 0,-0.1 -0.4,-0.1 -0.7,-0.2 -0.2,-0.1 -0.5,0 -0.8,0 -0.2,0 -0.5,0.1 -0.7,0.2 -0.3,0.1 -0.6,0.3 -0.9,0.5 0.3,-0.1 0.7,-0.2 1,-0.3 0.2,0 0.4,0 0.7,0 z"
   id="path100" />
</g>
</svg>
