<svg width="158" height="18" viewBox="0 0 158 18" fill="none" xmlns="http://www.w3.org/2000/svg">
<path d="M54.8445 13.09C54.5325 13.09 54.2985 13 54.1425 12.82C53.9985 12.64 53.9265 12.412 53.9265 12.136C53.9265 11.824 54.0345 11.542 54.2505 11.29C54.4665 11.038 54.7425 10.912 55.0785 10.912C55.3905 10.912 55.6185 11.002 55.7625 11.182C55.9185 11.362 55.9965 11.59 55.9965 11.866C55.9965 12.178 55.8885 12.46 55.6725 12.712C55.4685 12.964 55.1925 13.09 54.8445 13.09Z" fill="#161616"/>
<path d="M49.0382 13.18C48.1022 13.18 47.4122 12.916 46.9682 12.388C46.5362 11.86 46.3202 11.152 46.3202 10.264C46.3202 9.568 46.4342 8.89 46.6622 8.23C46.9022 7.558 47.2322 6.958 47.6522 6.43C48.0842 5.89 48.5822 5.464 49.1462 5.152C49.7102 4.84 50.3222 4.684 50.9822 4.684C51.5942 4.684 52.0502 4.822 52.3502 5.098C52.6622 5.374 52.8182 5.704 52.8182 6.088C52.8182 6.484 52.6802 6.85 52.4042 7.186C52.1282 7.522 51.6362 7.828 50.9282 8.104C50.2322 8.38 49.2542 8.632 47.9942 8.86C47.9702 9.088 47.9582 9.316 47.9582 9.544C47.9582 10.24 48.1142 10.798 48.4262 11.218C48.7502 11.638 49.2302 11.848 49.8662 11.848C50.2502 11.848 50.6282 11.746 51.0002 11.542C51.3722 11.338 51.7622 11.008 52.1702 10.552H52.2062L52.4042 10.714C52.0082 11.434 51.5102 12.028 50.9102 12.496C50.3222 12.952 49.6982 13.18 49.0382 13.18ZM50.4602 5.35C49.8722 5.35 49.3622 5.614 48.9302 6.142C48.5102 6.67 48.2222 7.36 48.0662 8.212C48.9062 8.044 49.5602 7.87 50.0282 7.69C50.4962 7.498 50.8262 7.282 51.0182 7.042C51.2222 6.79 51.3242 6.49 51.3242 6.142C51.3242 5.914 51.2522 5.728 51.1082 5.584C50.9642 5.428 50.7482 5.35 50.4602 5.35Z" fill="#161616"/>
<path d="M40.1306 13L41.3546 6.016L40.0226 5.404V5.26L42.7766 4.684H42.8306V6.808H42.9206C43.3046 6.148 43.6286 5.668 43.8926 5.368C44.1566 5.068 44.3906 4.882 44.5946 4.81C44.7986 4.726 44.9906 4.684 45.1706 4.684C45.3986 4.684 45.6026 4.756 45.7826 4.9C45.9626 5.044 46.0526 5.2 46.0526 5.368C46.0526 5.44 46.0346 5.518 45.9986 5.602L45.4946 6.628H45.3866L45.1886 6.484C44.9846 6.328 44.7446 6.25 44.4686 6.25C44.2646 6.25 44.0786 6.292 43.9106 6.376C43.7426 6.46 43.5566 6.628 43.3526 6.88C43.1606 7.12 42.9206 7.486 42.6326 7.978L41.7686 13H40.1306Z" fill="#161616"/>
<path d="M34.212 13.18C33.144 13.18 32.352 12.85 31.836 12.19C31.332 11.53 31.08 10.684 31.08 9.652C31.08 9.076 31.182 8.5 31.386 7.924C31.602 7.336 31.902 6.796 32.286 6.304C32.67 5.812 33.126 5.422 33.654 5.134C34.182 4.834 34.764 4.684 35.4 4.684C36.492 4.684 37.296 5.02 37.812 5.692C38.328 6.352 38.586 7.198 38.586 8.23C38.586 8.782 38.484 9.352 38.28 9.94C38.076 10.516 37.782 11.05 37.398 11.542C37.014 12.034 36.552 12.43 36.012 12.73C35.484 13.03 34.884 13.18 34.212 13.18ZM34.41 12.442C34.89 12.442 35.304 12.238 35.652 11.83C36.012 11.422 36.288 10.882 36.48 10.21C36.684 9.538 36.786 8.806 36.786 8.014C36.786 7.162 36.678 6.514 36.462 6.07C36.246 5.626 35.85 5.404 35.274 5.404C34.806 5.404 34.392 5.59 34.032 5.962C33.672 6.334 33.39 6.85 33.186 7.51C32.982 8.17 32.88 8.932 32.88 9.796C32.88 10.636 32.988 11.29 33.204 11.758C33.42 12.214 33.822 12.442 34.41 12.442Z" fill="#161616"/>
<path d="M27.4151 13.18C26.9351 13.18 26.6051 13.006 26.4251 12.658C26.2451 12.298 26.2031 11.812 26.2991 11.2L28.1171 0.813999L26.6051 0.219999V0.075999L29.9531 -0.500001H30.0071L28.0091 10.822C27.9011 11.458 27.9971 11.776 28.2971 11.776C28.4891 11.776 28.6991 11.674 28.9271 11.47C29.1551 11.254 29.3771 10.912 29.5931 10.444L29.8631 10.552C29.5151 11.452 29.1371 12.118 28.7291 12.55C28.3211 12.97 27.8831 13.18 27.4151 13.18Z" fill="#161616"/>
<path d="M15.5775 17.14V16.852L16.5855 16.33L18.4215 6.016L17.0895 5.404V5.26L19.8615 4.684H19.9155V6.844H20.0055C20.4735 6.16 20.9415 5.632 21.4095 5.26C21.8895 4.876 22.4055 4.684 22.9575 4.684C23.4495 4.684 23.8515 4.9 24.1635 5.332C24.4755 5.764 24.6315 6.388 24.6315 7.204C24.6315 7.96 24.5115 8.698 24.2715 9.418C24.0315 10.126 23.7015 10.768 23.2815 11.344C22.8615 11.908 22.3755 12.358 21.8235 12.694C21.2715 13.018 20.6895 13.18 20.0775 13.18C19.6575 13.18 19.2495 13.108 18.8535 12.964L18.2955 16.312L19.7715 16.852V17.14H15.5775ZM21.9675 6.016C21.5595 6.016 21.1635 6.202 20.7795 6.574C20.3955 6.946 20.0535 7.354 19.7535 7.798L19.1055 11.56C19.2975 11.848 19.4955 12.07 19.6995 12.226C19.9155 12.382 20.1795 12.46 20.4915 12.46C20.9835 12.46 21.4155 12.244 21.7875 11.812C22.1595 11.38 22.4475 10.816 22.6515 10.12C22.8675 9.424 22.9755 8.68 22.9755 7.888C22.9755 7.264 22.9035 6.796 22.7595 6.484C22.6155 6.172 22.3515 6.016 21.9675 6.016Z" fill="#161616"/>
<path d="M7.89174 13C7.89174 12.856 7.94574 12.706 8.05374 12.55C8.16174 12.394 8.34174 12.184 8.59374 11.92C8.85774 11.656 9.21173 11.29 9.65573 10.822C10.0997 10.354 10.6577 9.736 11.3297 8.968L10.1057 5.944L8.79174 5.404V5.26L11.3297 4.684H11.3837L12.6617 7.906C13.0937 7.342 13.4357 6.886 13.6877 6.538C13.9397 6.19 14.1257 5.92 14.2457 5.728C14.3777 5.524 14.4737 5.362 14.5337 5.242C14.5937 5.11 14.6477 4.984 14.6957 4.864H15.8297C15.8297 4.996 15.7817 5.134 15.6857 5.278C15.6017 5.41 15.4457 5.59 15.2177 5.818C15.0017 6.046 14.7017 6.364 14.3177 6.772C13.9337 7.18 13.4477 7.72 12.8597 8.392L14.1917 11.794L15.4877 12.316V12.46L13.0217 13.036H12.9677L11.5277 9.472C10.9997 10.144 10.5857 10.684 10.2857 11.092C9.98573 11.5 9.76374 11.818 9.61974 12.046C9.47574 12.262 9.36773 12.442 9.29573 12.586C9.22373 12.718 9.15773 12.856 9.09773 13H7.89174Z" fill="#161616"/>
<path d="M3.546 13.18C2.61 13.18 1.92 12.916 1.476 12.388C1.044 11.86 0.828 11.152 0.828 10.264C0.828 9.568 0.942 8.89 1.17 8.23C1.41 7.558 1.74 6.958 2.16 6.43C2.592 5.89 3.09 5.464 3.654 5.152C4.218 4.84 4.83 4.684 5.49 4.684C6.102 4.684 6.558 4.822 6.858 5.098C7.17 5.374 7.326 5.704 7.326 6.088C7.326 6.484 7.188 6.85 6.912 7.186C6.636 7.522 6.144 7.828 5.436 8.104C4.74 8.38 3.762 8.632 2.502 8.86C2.478 9.088 2.466 9.316 2.466 9.544C2.466 10.24 2.622 10.798 2.934 11.218C3.258 11.638 3.738 11.848 4.374 11.848C4.758 11.848 5.136 11.746 5.508 11.542C5.88 11.338 6.27 11.008 6.678 10.552H6.714L6.912 10.714C6.516 11.434 6.018 12.028 5.418 12.496C4.83 12.952 4.206 13.18 3.546 13.18ZM4.968 5.35C4.38 5.35 3.87 5.614 3.438 6.142C3.018 6.67 2.73 7.36 2.574 8.212C3.414 8.044 4.068 7.87 4.536 7.69C5.004 7.498 5.334 7.282 5.526 7.042C5.73 6.79 5.832 6.49 5.832 6.142C5.832 5.914 5.76 5.728 5.616 5.584C5.472 5.428 5.256 5.35 4.968 5.35Z" fill="#161616"/>
<path d="M64.4197 13.3177H66.6037V2.07704H64.4197V6.09345C63.6315 5.36049 62.728 4.994 61.677 4.994C59.4113 4.994 57.5714 6.73489 57.5714 9.27048C57.5714 11.7599 59.5096 13.5319 61.7265 13.5319C62.827 13.5319 63.6481 13.1652 64.4197 12.4623V13.3177ZM62.1211 6.85727C63.5003 6.85727 64.518 7.81942 64.518 9.23996C64.518 10.7214 63.467 11.6684 62.1211 11.6684C60.7576 11.6684 59.7724 10.6479 59.7724 9.25792C59.7724 7.92893 60.6755 6.861 62.1208 6.861L62.1211 6.85727ZM75.2607 13.3177H77.4446V5.20758H75.2607V6.09345C74.4724 5.36049 73.569 4.994 72.518 4.994C70.2519 4.994 68.4124 6.73489 68.4124 9.27048C68.4124 11.7599 70.3505 13.5319 72.5675 13.5319C73.6693 13.5319 74.4897 13.1652 75.2627 12.4623V13.3177H75.2607ZM72.9621 6.85727C74.3409 6.85727 75.3589 7.81942 75.3589 9.23996C75.3589 10.7214 74.308 11.6684 72.9621 11.6684C71.5985 11.6684 70.6133 10.6479 70.6133 9.25792C70.6133 7.92893 71.5165 6.861 72.9617 6.861L72.9621 6.85727ZM78.794 5.20758V6.94881H79.9107V13.3177H82.0974V6.94881H83.3959V5.20758H82.1008V2.21401H79.9175V5.20758H78.794ZM91.0405 13.3177H93.2248V5.20758H91.0405V6.09345C90.2527 5.36049 89.3495 4.994 88.2985 4.994C86.0321 4.994 84.1929 6.73489 84.1929 9.27048C84.1929 11.7599 86.1308 13.5319 88.3477 13.5319C89.4481 13.5319 90.2692 13.1652 91.0408 12.4623L91.0405 13.3177ZM88.742 6.85727C90.1218 6.85727 91.1395 7.81942 91.1395 9.23996C91.1395 10.7214 90.0886 11.6684 88.742 11.6684C87.379 11.6684 86.3935 10.6479 86.3935 9.25792C86.3935 7.92893 87.2966 6.861 88.742 6.861V6.85727ZM96.6269 11.1947C95.937 11.1947 95.3624 11.6989 95.3624 12.3556C95.3624 12.997 95.937 13.5319 96.6269 13.5319C97.3332 13.5319 97.8746 12.997 97.8746 12.3556C97.8746 11.7141 97.3165 11.1947 96.6269 11.1947ZM108.653 5.20758H106.468V6.09345C105.647 5.37574 104.794 4.994 103.709 4.994C101.492 4.994 99.6344 6.64335 99.6344 9.14802C99.6344 11.5765 101.472 13.3181 103.821 13.3181C104.954 13.3181 105.74 12.9665 106.466 12.3098C106.466 13.0733 106.449 13.6232 105.923 14.0815C105.53 14.4171 104.872 14.6138 104.065 14.6138C103.143 14.6138 102.489 14.4002 102.045 13.912H99.631C100.221 15.6071 101.747 16.4785 104.147 16.4785C105.476 16.4785 106.527 16.1868 107.313 15.5766C108.314 14.7833 108.642 13.7289 108.642 12.1559V5.20589L108.653 5.20758ZM104.201 6.85727C105.647 6.85727 106.583 7.86519 106.583 9.17854C106.583 10.5533 105.581 11.4544 104.234 11.4544C102.871 11.4544 101.836 10.5076 101.836 9.16328C101.836 7.91096 102.757 6.85727 104.201 6.85727ZM114.961 4.994C112.58 4.994 110.445 6.81117 110.445 9.27048C110.445 11.6531 112.449 13.5319 114.977 13.5319C117.638 13.5319 119.591 11.607 119.591 9.25522C119.591 6.85727 117.506 4.994 114.961 4.994ZM114.994 6.9183C116.423 6.9183 117.391 7.8957 117.391 9.27048C117.391 10.6909 116.341 11.607 114.994 11.607C113.582 11.607 112.646 10.6296 112.646 9.25522C112.646 7.91096 113.631 6.9183 114.994 6.9183ZM121.36 8.91921C121.36 9.59116 121.327 9.97288 121.442 10.6296C121.787 12.5234 123.084 13.5164 125.186 13.5164C126.401 13.5164 127.305 13.2113 127.994 12.4925C128.917 11.546 129.015 10.4465 129.015 8.94973V5.20758H126.832V9.53012C126.832 10.9045 126.357 11.6531 125.191 11.6531C124.041 11.6531 123.55 10.8893 123.55 9.43826V5.20725H121.367V8.91959L121.36 8.91921ZM135.426 13.3177L139.137 5.20758H136.92L134.72 9.98783L132.52 5.20758H130.286L134.011 13.3177H135.426Z" fill="#161616"/>
<path d="M140.969 11.7104C141.245 11.7104 141.477 11.8002 141.664 11.9796C141.857 12.1514 141.954 12.3638 141.954 12.6169C141.954 12.8678 141.857 13.0826 141.664 13.2611C141.472 13.4351 141.24 13.5222 140.969 13.5222C140.7 13.5222 140.468 13.4351 140.274 13.2611C140.088 13.0802 139.996 12.8645 139.996 12.6135C139.996 12.3627 140.09 12.1502 140.277 11.9762C140.472 11.7954 140.704 11.705 140.973 11.705L140.969 11.7104ZM150.131 5.40625L149.958 5.99887H148.548L147.486 9.9234C147.016 11.6536 146.543 12.9915 146.067 13.9375C145.391 15.2723 144.663 16.1942 143.884 16.7032C143.292 17.0924 142.7 17.287 142.108 17.287C141.724 17.287 141.396 17.1792 141.125 16.9636C140.926 16.8139 140.827 16.6193 140.827 16.3797C140.827 16.1883 140.91 16.0208 141.077 15.877C141.238 15.7392 141.438 15.6702 141.678 15.6702C141.852 15.6702 142 15.721 142.122 15.8228C142.239 15.9244 142.298 16.0413 142.298 16.1733C142.298 16.3044 142.23 16.4264 142.095 16.5394C141.993 16.623 141.942 16.6852 141.942 16.7259C141.942 16.7802 141.964 16.822 142.01 16.8513C142.068 16.892 142.159 16.9124 142.281 16.9124C142.559 16.9124 142.851 16.831 143.159 16.6683C143.462 16.5055 143.732 16.2626 143.969 15.9394C144.209 15.6207 144.434 15.1596 144.644 14.5562C144.734 14.3053 144.976 13.4758 145.369 12.0677L147.047 5.99276H145.368L145.503 5.39947C146.037 5.39947 146.41 5.3667 146.622 5.30115C146.835 5.22883 147.028 5.09695 147.202 4.90552C147.383 4.70752 147.615 4.34251 147.897 3.81047C148.277 3.09174 148.641 2.53461 148.989 2.13908C149.465 1.60636 149.965 1.20823 150.486 0.944698C151.013 0.67574 151.508 0.54126 151.971 0.54126C152.459 0.54126 152.851 0.657884 153.148 0.891132C153.444 1.11873 153.592 1.36735 153.592 1.63698C153.592 1.84628 153.518 2.02279 153.371 2.16654C153.222 2.30961 153.032 2.38114 152.802 2.38114C152.601 2.38114 152.437 2.32689 152.308 2.21841C152.186 2.10993 152.125 1.98109 152.125 1.83192C152.125 1.737 152.167 1.6206 152.251 1.48273C152.334 1.33808 152.375 1.24202 152.375 1.19456C152.375 1.11093 152.347 1.04821 152.288 1.0064C152.205 0.945828 152.083 0.915542 151.922 0.915542C151.517 0.915542 151.153 1.03533 150.831 1.27491C150.399 1.59246 150.012 2.0897 149.671 2.76661C149.497 3.1192 149.179 3.99614 148.715 5.39744H150.132L150.131 5.40625Z" fill="#161616"/>
<path d="M150.788 5.69375L154.119 5.19064L152.729 9.55525C153.855 7.76518 154.879 6.51396 155.799 5.80156C156.32 5.39428 156.745 5.19064 157.074 5.19064C157.286 5.19064 157.453 5.25053 157.576 5.37032C157.698 5.48401 157.759 5.65171 157.759 5.87343C157.759 6.26851 157.65 6.64561 157.43 7.00476C157.276 7.27416 157.054 7.40887 156.764 7.40887C156.616 7.40887 156.488 7.36401 156.378 7.27428C156.275 7.18432 156.211 7.04646 156.185 6.86067C156.173 6.74721 156.143 6.67263 156.099 6.63691C156.047 6.58878 155.986 6.5647 155.915 6.5647C155.806 6.5647 155.702 6.58866 155.606 6.63657C155.439 6.7202 155.185 6.953 154.843 7.33497C154.309 7.92034 153.73 8.68092 153.105 9.61659C152.834 10.0121 152.602 10.4574 152.41 10.9523C152.139 11.6349 151.984 12.0452 151.946 12.183L151.637 13.312H150.159L151.946 7.73501C152.151 7.08861 152.254 6.62753 152.254 6.35179C152.254 6.2433 152.206 6.1529 152.109 6.08058C151.98 5.98339 151.809 5.93479 151.596 5.93479C151.461 5.93479 151.212 5.96079 150.851 6.01277L150.783 5.68053L150.788 5.69375Z" fill="#161616"/>
</svg>
