<svg width="12" height="11" viewBox="0 0 12 11" fill="none" xmlns="http://www.w3.org/2000/svg">
<path d="M9.5 10.5H2.5C2.36739 10.5 2.24021 10.4473 2.14645 10.3535C2.05268 10.2597 2 10.1326 2 9.99996V5.49996H0.5L5.6635 0.80596C5.75556 0.722199 5.87554 0.675781 6 0.675781C6.12446 0.675781 6.24444 0.722199 6.3365 0.80596L11.5 5.49996H10V9.99996C10 10.1326 9.94732 10.2597 9.85355 10.3535C9.75979 10.4473 9.63261 10.5 9.5 10.5ZM6.5 9.49996H9V4.57846L6 1.85146L3 4.57846V9.49996H5.5V6.49996H6.5V9.49996Z" fill="#333333"/>
</svg>
