<svg width="14" height="15" viewBox="0 0 14 15" fill="none" xmlns="http://www.w3.org/2000/svg">
<path fill-rule="evenodd" clip-rule="evenodd" d="M7.93184 0.823683C8.12782 0.775748 8.33415 0.851991 8.44576 1.01316L8.59003 1.22039H8.66502C8.87666 1.22039 9.05999 1.35378 9.12096 1.5526L9.14709 1.63632C9.2557 1.65942 9.35274 1.71924 9.4212 1.80523C9.46421 1.81337 9.50558 1.82739 9.54519 1.84716L9.73641 1.94076C9.81943 1.98215 9.88653 2.04384 9.9324 2.11888L10.0897 2.08176C10.2286 2.04758 10.3804 2.08016 10.4956 2.16882C10.6113 2.25828 10.6776 2.39221 10.6776 2.53628V2.70345L11.0008 2.9183C11.074 2.91416 11.1501 2.92724 11.2191 2.95715L11.271 2.97918L11.337 2.95261C11.4392 2.91229 11.5515 2.90681 11.6541 2.93699L11.913 3.0131C12.004 3.03994 12.084 3.09215 12.1442 3.16425L12.3312 3.38817L12.5797 3.3632C12.6796 3.35492 12.7708 3.37295 12.8529 3.41595L13.0042 3.49593L13.2247 3.4998C13.313 3.50167 13.3985 3.52704 13.4721 3.57324L13.6644 3.69261C13.8728 3.82306 13.9458 4.09225 13.8308 4.30576L13.6235 4.69151L13.6129 4.80741C13.6092 4.84507 13.6017 4.87965 13.59 4.91383L13.4418 5.3339L13.4534 6.03037C13.4562 6.17164 13.394 6.3053 13.2825 6.39663L13.0109 6.61882C12.9634 6.65754 12.9084 6.68678 12.8495 6.70521L12.383 7.29513C12.5428 7.33478 12.6755 7.45375 12.7241 7.61652L12.7749 7.78703L12.8398 7.86715L12.9922 8.09C13.1023 8.25264 13.098 8.46681 12.9816 8.6241L13.1617 8.83507C13.2384 8.92614 13.2775 9.0403 13.2719 9.157L13.259 9.40002C13.251 9.53808 13.1806 9.66493 13.0719 9.74692L13.1056 9.77843C13.2101 9.87564 13.2635 10.0133 13.2514 10.1555C13.2433 10.2507 13.2065 10.3396 13.1459 10.4121L13.2025 10.4507L13.2627 10.4298C13.496 10.3494 13.7505 10.4541 13.8546 10.6733L13.9328 10.8398C14.0058 10.996 13.9855 11.1782 13.8802 11.3149L13.8539 11.3515C13.8789 11.5117 13.8173 11.6736 13.6884 11.7794L13.2082 12.1703L13.0003 12.3013C13.0033 12.3735 12.9891 12.4461 12.9585 12.5128C12.9074 12.6253 12.8095 12.7151 12.6902 12.7586L12.2698 12.9108C12.2312 12.9239 12.2015 12.9312 12.1706 12.9354L11.8557 12.9794C11.7959 12.9878 11.7329 12.9849 11.6735 12.9704L11.0268 12.8224L10.5963 12.6993C10.585 12.6961 10.574 12.6925 10.5632 12.6885C10.4647 12.7008 10.3648 12.6826 10.2774 12.6365L10.1293 12.5563C10.0085 12.5806 9.88204 12.5583 9.77751 12.4929L9.37179 12.7324L9.24413 12.9864L9.36826 13.4147C9.40283 13.5354 9.38636 13.6663 9.32362 13.7742C9.26264 13.8806 9.1573 13.9607 9.03481 13.9936L8.52238 14.1272C8.48591 14.1372 8.44304 14.1428 8.40003 14.1428L8.33184 14.1376L7.90271 14.0626L7.70809 14.1016C7.60655 14.1212 7.49999 14.1085 7.40798 14.0657L7.17879 13.9564C7.05915 13.8996 6.96919 13.795 6.93081 13.6714L6.74285 13.5959L6.66419 13.5792C6.64772 13.599 6.62975 13.6172 6.61015 13.6341C6.50576 13.7241 6.36707 13.7651 6.22948 13.7456L5.41899 13.6384C5.35461 13.63 5.29391 13.609 5.23811 13.5763L5.10105 13.497H4.89513C4.76434 13.497 4.63804 13.4434 4.54848 13.35L4.40952 13.2052L3.94514 13.0093C3.85055 12.9694 3.77025 12.8988 3.71921 12.8105L3.62449 12.6472L3.42591 12.5399C3.30152 12.4719 3.21509 12.3553 3.18801 12.2195C3.16147 12.0817 3.19767 11.9414 3.28736 11.8341L3.59659 11.465L3.76807 10.5454C3.77188 10.5246 3.77733 10.504 3.784 10.4837C3.75746 10.4144 3.7482 10.3398 3.75719 10.2647L3.899 9.05018C3.90159 9.02775 3.90581 9.00545 3.91166 8.98369C3.87328 8.91626 3.85205 8.83975 3.85096 8.76204C3.84905 8.62918 3.90486 8.50193 4.00407 8.41207C3.97903 8.36573 3.96243 8.31753 3.95412 8.26772L3.73555 8.1577C3.67076 8.12512 3.6136 8.07772 3.57059 8.02057L3.19808 7.53534C3.15752 7.48246 3.12935 7.42304 3.11424 7.35868L3.00373 6.86731L3.0025 6.8617L2.9531 6.82819C2.91199 6.80041 2.87579 6.76663 2.8453 6.72764L2.68484 6.51921L1.7897 6.17004H1.53233C1.36383 6.17004 1.20623 6.08138 1.12116 5.93851L1.01174 5.75544C0.951854 5.65623 0.933072 5.53726 0.956345 5.4251C0.870737 5.36742 0.806225 5.28557 0.77288 5.19183L0.669442 4.89981C0.589142 4.67255 0.695846 4.42473 0.917692 4.32298L1.59575 4.01254C1.65046 3.98837 1.70259 3.97488 1.75676 3.97048L2.69056 3.88809C2.83795 3.87888 2.97555 3.92882 3.073 4.02616L3.24585 4.19854L3.28219 4.18452C3.36644 4.15234 3.45708 4.14406 3.54432 4.16035L3.6694 4.18251L3.5005 3.78528L3.37419 3.28068C3.34085 3.14529 3.3697 3.00375 3.45354 2.89213C3.53724 2.7797 3.66749 2.71053 3.81067 2.70265L4.19339 2.68356C4.3216 2.67114 4.46655 2.72736 4.56549 2.8311L4.89377 3.17707L5.31991 3.25959L5.3244 3.20658C5.33978 3.02151 5.46581 2.86302 5.6456 2.80306L6.45432 2.53094L6.67126 2.33626L6.64037 1.86305C6.63574 1.7868 6.64989 1.71056 6.6812 1.64179L6.85024 1.27834C6.91012 1.14975 7.02431 1.05575 7.16341 1.0201L7.93184 0.823683ZM7.80636 2.14284L7.58623 2.19669L7.56249 2.24552L7.59929 2.78898C7.60809 2.92259 7.55303 3.05057 7.44809 3.14048L6.99955 3.52615C6.95102 3.56773 6.89515 3.59866 6.83355 3.61807L6.34208 3.77635L6.49368 3.88115L6.30501 3.97144C6.26634 4.07938 6.18341 4.17079 6.07407 4.22301L5.75207 4.37715C5.65807 4.42098 5.55167 4.43501 5.45153 4.41685L4.65806 4.27009C4.65819 4.27147 4.65832 4.27285 4.65846 4.27422L4.69646 4.80654C4.71259 5.03481 4.54339 5.23354 4.30298 5.26897L4.10032 5.29865C4.04791 5.30617 3.99511 5.30566 3.94338 5.29652L3.55084 5.22978L3.35151 5.30316C3.17617 5.36727 2.97843 5.32745 2.84777 5.20198L2.61723 4.98209L2.00162 5.03394L1.97616 5.04496C2.07576 5.13248 2.12882 5.25583 2.12362 5.3818C2.12576 5.38255 2.12789 5.38343 2.13002 5.38418L3.2143 5.78902C3.29684 5.82095 3.36377 5.86928 3.41471 5.93289L3.55231 6.10407C3.64311 6.09706 3.73564 6.11471 3.81645 6.15629L4.08191 6.2929C4.18885 6.34813 4.26845 6.44116 4.30392 6.54948L4.67286 6.73919L4.27618 6.87042C4.23098 6.95645 4.15658 7.02682 4.06538 7.06965L4.29872 7.36041L4.70912 7.55813C4.90019 7.6508 4.99939 7.85215 4.95073 8.04787L4.94619 8.06628L5.03513 8.22406C5.10633 8.35028 5.10646 8.49791 5.04233 8.62138L5.08006 8.65093C5.14886 8.70615 5.1986 8.77578 5.225 8.85316L5.483 9.58633C5.52193 9.69415 5.5126 9.81361 5.459 9.91641L5.63407 10.4137L5.15273 10.1486C5.09313 10.1625 5.03126 10.1652 4.97113 10.1567C4.95873 10.1979 4.93993 10.2377 4.91486 10.2745L4.71139 10.5754L4.53805 11.4654C4.52392 11.5389 4.48939 11.6084 4.43845 11.6661L4.38779 11.7241C4.39805 11.7374 4.40752 11.7514 4.41619 11.7659L4.49592 11.8974L4.89593 12.0589C4.95779 12.085 5.00806 12.118 5.05126 12.161L5.11566 12.2254H5.24286C5.325 12.2254 5.40633 12.246 5.4778 12.285L5.64527 12.3779L5.901 12.4101C5.92634 12.3755 5.95701 12.3442 5.99194 12.3174C6.10207 12.2346 6.24301 12.2026 6.37914 12.228L7.03262 12.367L7.49249 12.5423C7.60289 12.5855 7.68956 12.6638 7.73876 12.7609L7.76089 12.7567C7.79143 12.7507 7.82303 12.7478 7.85436 12.7478L7.92303 12.7529L8.26063 12.8095L8.22757 12.7001C8.19583 12.5934 8.2073 12.4812 8.25943 12.3835L8.5237 11.8815C8.56304 11.806 8.62504 11.7429 8.70277 11.6993L9.47918 11.2607C9.61612 11.1819 9.78519 11.1766 9.92719 11.2434C10.0391 11.1843 10.1665 11.1706 10.2875 11.2037L10.4575 11.2525C10.4649 11.2548 10.4724 11.257 10.4797 11.2597C10.6273 11.2031 10.7969 11.2206 10.9291 11.3104L11.1824 11.4829C11.2495 11.5283 11.3021 11.5896 11.3353 11.6599L11.6879 11.7365L11.8623 11.7133L11.8972 11.7011C11.9141 11.6606 11.9376 11.6224 11.9664 11.5884L12.1188 11.4094C12.1525 11.3705 12.1893 11.3397 12.2319 11.3141L12.5259 11.1372L12.6428 11.045L12.2613 10.7962C12.1376 10.7159 12.0627 10.5833 12.0608 10.4416L12.0545 10.0171L11.8957 9.87459C11.8041 9.79382 11.7512 9.67799 11.7512 9.55765V9.40326C11.7512 9.22682 11.8628 9.06867 12.0356 8.99967L11.9736 8.93017C11.9083 8.85579 11.8712 8.76726 11.8657 8.67347L11.8532 8.47963C11.8521 8.46147 11.8523 8.44344 11.8533 8.42554C11.7957 8.46348 11.7291 8.48927 11.6589 8.49979C11.5345 8.51807 11.4051 8.48815 11.3041 8.41689L11.1696 8.32035C11.0059 8.20314 10.9431 7.99515 11.0171 7.81433L11.088 7.6414L11.1077 7.41876C11.1141 7.34689 11.1396 7.27714 11.1812 7.21678L11.4791 6.7894L11.7868 6.41587C11.7795 6.36466 11.7817 6.31231 11.7939 6.2616C11.8237 6.13513 11.9111 6.02806 12.0335 5.96808L12.1921 5.89057C12.2447 5.86477 12.3018 5.84887 12.3598 5.84324L12.3519 5.38393C12.351 5.33146 12.3599 5.27974 12.3787 5.23016L12.5296 4.82068L12.5434 4.67781C12.547 4.64037 12.5558 4.6038 12.5692 4.56849C12.5503 4.56173 12.5318 4.55384 12.514 4.5447L12.3947 4.48434L12.044 4.51815C11.8783 4.5293 11.7313 4.47082 11.6344 4.35875L11.4024 4.0924L11.3321 4.11932C11.2171 4.16403 11.0848 4.1629 10.97 4.11619L10.8433 4.06473L10.808 4.06748C10.7037 4.07537 10.5984 4.04958 10.5124 3.99648L9.93865 3.63134C9.90519 3.61018 9.87479 3.58476 9.84839 3.55621C9.80412 3.56047 9.75905 3.55859 9.71479 3.55057L9.40785 3.49773C9.20505 3.46279 9.04878 3.30376 9.02798 3.11092L9.02024 3.0403C8.89038 3.01726 8.77384 2.94238 8.70411 2.83131L8.69744 2.82066C8.62437 2.80363 8.55597 2.77007 8.4997 2.72311L8.38544 2.6277C8.35664 2.60353 8.33144 2.57686 8.3101 2.54743C8.17183 2.53704 8.04436 2.46892 7.96343 2.3586L7.80636 2.14284Z" fill="#3A3A3A"/>
</svg>
