<svg width="10" height="10" viewBox="0 0 10 10" fill="none" xmlns="http://www.w3.org/2000/svg">
<path fill-rule="evenodd" clip-rule="evenodd" d="M9.504 0.500001C9.63659 0.499723 9.76375 0.552648 9.85699 0.646918C9.95022 0.741189 10.0017 0.868924 10 1.0015V4H9.5V9.0005C9.5004 9.13258 9.44831 9.25941 9.3552 9.35308C9.26209 9.44676 9.13558 9.49961 9.0035 9.5H0.9965C0.864422 9.49961 0.737911 9.44676 0.644799 9.35308C0.551688 9.25941 0.499602 9.13258 0.5 9.0005V4H0V1.0015C0 0.724502 0.2275 0.500001 0.496 0.500001H9.504ZM8.5 4H1.5V8.5H8.5V4ZM6.5 5V6H3.5V5H6.5ZM9 1.5H1V3H9V1.5Z" fill="#333333"/>
</svg>
