<svg width="14" height="15" viewBox="0 0 14 15" fill="none" xmlns="http://www.w3.org/2000/svg">
<path fill-rule="evenodd" clip-rule="evenodd" d="M7.00004 14.1666C3.31804 14.1666 0.333374 11.182 0.333374 7.49998C0.333374 3.81798 3.31804 0.833313 7.00004 0.833313C10.682 0.833313 13.6667 3.81798 13.6667 7.49998C13.6667 11.182 10.682 14.1666 7.00004 14.1666ZM7.00004 12.8333C9.94556 12.8333 12.3334 10.4455 12.3334 7.49998C12.3334 4.55446 9.94556 2.16665 7.00004 2.16665C4.05452 2.16665 1.66671 4.55446 1.66671 7.49998C1.66671 10.4455 4.05452 12.8333 7.00004 12.8333ZM6.33337 4.16665H7.66671V5.49998H6.33337V4.16665ZM6.33337 6.83331H7.66671V10.8333H6.33337V6.83331Z" fill="#3A3A3A"/>
</svg>
