<svg width="12" height="10" viewBox="0 0 12 10" fill="none" xmlns="http://www.w3.org/2000/svg">
<path fill-rule="evenodd" clip-rule="evenodd" d="M9.395 0C9.57363 0 9.73869 0.0953034 9.828 0.25L11.179 2.591C11.7986 3.62018 11.4996 4.95467 10.5 5.621V9H11V10H1V9H1.5V5.621C0.874841 5.20373 0.499586 4.50163 0.5 3.75C0.5 3.3365 0.612001 2.938 0.816501 2.5985L2.1725 0.25C2.26181 0.0953034 2.42687 0 2.6055 0H9.395ZM7.625 5.306C7.20085 5.74963 6.61376 6.00054 6 6.0005C5.38639 6.0008 4.79932 5.75026 4.375 5.307C3.89017 5.81351 3.19677 6.0648 2.5 5.9865V9H9.5V5.986C8.80315 6.06417 8.10974 5.8127 7.625 5.306ZM9.105 1H2.8945L1.678 3.1065C1.43281 3.7123 1.69566 4.40471 2.28109 4.6952C2.86652 4.98568 3.5769 4.77618 3.911 4.2145C4.0785 3.796 4.671 3.796 4.839 4.2145C5.02856 4.68961 5.48847 5.00127 6 5.00127C6.51153 5.00127 6.97144 4.68961 7.161 4.2145C7.3285 3.796 7.921 3.796 8.089 4.2145C8.2659 4.64994 8.67211 4.94935 9.1404 4.98947C9.60869 5.02958 10.0599 4.80362 10.3083 4.40461C10.5567 4.0056 10.5602 3.50098 10.3175 3.0985L9.105 1Z" fill="#333333"/>
</svg>
