<svg width="10" height="12" viewBox="0 0 10 12" fill="none" xmlns="http://www.w3.org/2000/svg">
<path d="M5 11.364L1.818 8.18196C1.18867 7.55262 0.760093 6.7508 0.586464 5.87789C0.412835 5.00497 0.501953 4.10018 0.842549 3.27791C1.18315 2.45565 1.75992 1.75285 2.49994 1.25838C3.23996 0.763919 4.10999 0.5 5 0.5C5.89002 0.5 6.76004 0.763919 7.50006 1.25838C8.24008 1.75285 8.81686 2.45565 9.15745 3.27791C9.49805 4.10018 9.58717 5.00497 9.41354 5.87789C9.23991 6.7508 8.81133 7.55262 8.182 8.18196L5 11.364ZM7.475 7.47496C7.96445 6.98546 8.29776 6.36182 8.43278 5.6829C8.5678 5.00397 8.49846 4.30026 8.23355 3.66074C7.96863 3.02122 7.52002 2.47461 6.94446 2.09005C6.3689 1.70548 5.69222 1.50021 5 1.50021C4.30778 1.50021 3.63111 1.70548 3.05554 2.09005C2.47998 2.47461 2.03138 3.02122 1.76646 3.66074C1.50154 4.30026 1.43221 5.00397 1.56723 5.6829C1.70225 6.36182 2.03555 6.98546 2.525 7.47496L5 9.94996L7.475 7.47496ZM5 5.99996C4.73479 5.99996 4.48043 5.8946 4.2929 5.70707C4.10536 5.51953 4 5.26518 4 4.99996C4 4.73474 4.10536 4.48039 4.2929 4.29285C4.48043 4.10532 4.73479 3.99996 5 3.99996C5.26522 3.99996 5.51957 4.10532 5.70711 4.29285C5.89464 4.48039 6 4.73474 6 4.99996C6 5.26518 5.89464 5.51953 5.70711 5.70707C5.51957 5.8946 5.26522 5.99996 5 5.99996Z" fill="#666666"/>
</svg>